<svg xmlns="http://www.w3.org/2000/svg" viewBox="0 0 512 512" role="img" aria-label="Stealth">
  <rect width="512" height="512" rx="96" fill="#f5f5f5"/>
  <path
    fill="#bf2b23"
    d="M74 332c-27-28-28-54-7-87 19-31 39-65 66-96 41-48 88-89 137-128 38-31 61-36 123-34 33 1 67 5 101 10 14 2 20 18 25 35 9 32 14 68 9 101-2 17-11 27-24 30-34 7-75 7-111-1-17-4-26-9-33-20-7-10-19-15-31-11-34 12-74 59-91 100-12 29-21 59-40 83-19 25-50 39-84 48 9 14 30 27 60 35 43 11 86 10 132-3 50-15 88-51 137-54 58-4 117 30 135 78 16 42 7 86-29 110-34 23-82 20-120 1-14-7-35-8-61-5-79 10-155 15-229 2-45-8-89-28-131-60-22-17-42-34-60-52Z"
  />
  <path
    fill="#f5f5f5"
    d="M164 327c36-11 67-24 88-43 21-18 26-40 36-63 4-10 14-17 24-18 5-1 9 2 10 6 1 5-2 9-6 11-12 4-20 16-25 31-12 33-33 57-64 73-17 9-36 16-58 22-7 2-11-1-12-6-1-6 2-11 7-13Zm67 63c35 19 84 24 137 8 6-2 11 0 13 6 2 5-1 10-7 12-55 19-111 13-150-9-6-3-8-8-5-13 2-5 7-7 12-4Z"
  />
</svg>
