<svg version="1.1" id="Layer_1" xmlns="http://www.w3.org/2000/svg" xmlns:xlink="http://www.w3.org/1999/xlink" x="0px" y="0px"
	 width="100%" viewBox="0 0 212 212" enable-background="new 0 0 212 212" xml:space="preserve">
<path fill="#FEFEFE" opacity="1.000000" stroke="none" 
	d="
M148.000000,213.000000 
	C98.666672,213.000000 49.833340,213.000000 1.000006,213.000000 
	C1.000004,142.333344 1.000004,71.666679 1.000002,1.000016 
	C71.666656,1.000011 142.333313,1.000011 212.999969,1.000005 
	C212.999985,71.666649 212.999985,142.333298 213.000000,212.999969 
	C191.500000,213.000000 170.000000,213.000000 148.000000,213.000000 
M63.650402,138.738235 
	C64.107056,138.666061 64.563705,138.593872 65.902657,138.719864 
	C68.845032,138.719864 71.787399,138.719864 74.729774,138.719864 
	C75.022377,139.209076 75.314972,139.698288 75.607574,140.187500 
	C72.243263,143.103012 69.263565,147.530212 65.407112,148.511398 
	C61.504158,149.504410 60.464138,150.580978 59.645050,154.189148 
	C58.432625,159.529984 56.755386,164.421127 49.338024,165.038940 
	C43.137959,165.555359 37.123692,168.302353 31.027143,170.061569 
	C31.088512,170.558212 31.149881,171.054840 31.211250,171.551483 
	C81.729454,163.843689 132.203247,163.690063 182.674545,171.168198 
	C144.031372,156.905685 104.105446,157.375397 63.443279,160.906586 
	C70.322502,154.442505 77.598190,148.767044 84.838287,143.046524 
	C91.428444,137.839523 97.979950,132.583603 105.145035,127.970474 
	C105.380714,128.134399 105.616402,128.298340 105.864464,129.336319 
	C105.434258,133.989746 105.004051,138.643188 104.573845,143.296616 
	C105.098648,143.483353 105.623451,143.670090 106.148254,143.856842 
	C107.265335,142.601242 108.629379,141.489700 109.459526,140.066711 
	C114.963112,130.632828 122.899712,125.378334 133.998230,124.959541 
	C136.591705,124.861679 139.516678,124.356636 141.629715,123.006737 
	C144.373749,121.253708 148.115479,118.624329 148.354630,116.082954 
	C148.587784,113.605263 145.496231,109.878891 142.894058,108.269737 
	C137.855148,105.153717 132.134796,103.139641 126.693848,100.667526 
	C133.330917,85.248634 142.037827,81.379456 157.405869,87.113739 
	C158.028732,87.346146 158.627335,87.649277 159.259033,87.851318 
	C164.343994,89.477623 168.345993,88.227356 169.464447,83.060265 
	C170.841873,76.696701 170.789169,69.987038 170.903656,63.419086 
	C170.925217,62.182629 168.964127,60.077538 167.681305,59.875500 
	C166.259064,59.651497 163.898376,60.757797 163.165665,62.002583 
	C162.325623,63.429684 162.400330,65.767700 162.892868,67.474754 
	C163.216995,68.598152 164.982071,69.305786 166.554581,70.560898 
	C164.297852,73.688545 162.123093,76.702606 160.101135,79.504875 
	C156.742798,77.104904 153.723282,75.286285 151.172501,72.954826 
	C150.172409,72.040718 149.715134,68.684906 149.868164,68.624817 
	C154.908020,66.645706 151.891495,62.872658 151.527832,60.141312 
	C151.085785,56.821259 148.983765,54.721432 144.968246,54.729603 
	C140.815536,54.738056 137.755508,55.734905 136.702515,60.063541 
	C136.248703,61.929119 136.141510,63.879005 135.760529,66.630669 
	C127.783653,65.874115 120.054688,64.775421 112.300667,64.554031 
	C108.188339,64.436623 104.032516,65.842346 98.965103,66.510216 
	C97.660667,66.326576 96.325783,65.863586 95.056458,66.001968 
	C80.298744,67.610924 65.208908,66.354065 50.801064,71.057343 
	C50.495781,71.156998 50.012871,70.712509 48.400581,69.944168 
	C65.172623,69.944168 80.662796,69.944168 95.432022,70.568977 
	C94.162811,72.281898 92.898659,73.998589 91.623314,75.706924 
	C89.190094,78.966232 88.831505,83.891159 84.060371,84.455215 
	C83.136368,84.222282 82.182129,83.715218 81.294601,83.813072 
	C79.405235,84.021385 77.558083,84.836617 75.680229,84.885223 
	C68.832664,85.062439 61.978668,84.978905 55.129375,85.111534 
	C53.761841,85.138016 52.404354,85.683296 51.042233,85.989365 
	C61.019093,86.988777 70.876945,87.047516 80.731964,86.907135 
	C81.841148,86.891327 82.934311,85.750107 84.693924,85.758980 
	C83.406586,88.365623 83.602249,90.980804 86.543137,91.743881 
	C88.346550,92.211815 92.094482,91.390610 92.400642,90.374428 
	C93.910973,85.361496 97.587677,86.291740 101.117302,86.268326 
	C105.079742,86.242043 109.041382,86.095642 113.379822,86.065308 
	C113.379822,86.065308 113.750626,85.974236 113.764717,86.607765 
	C113.650200,87.012337 113.535675,87.416908 112.924332,88.228729 
	C109.691078,95.186050 105.307739,99.225220 96.555573,98.859367 
	C86.265587,98.429245 75.889778,100.013519 65.554146,100.764938 
	C64.315605,100.854980 63.095573,101.199448 61.866959,101.425995 
	C61.932087,101.877136 61.997215,102.328278 62.062344,102.779411 
	C63.603275,102.885147 65.144310,103.083488 66.685120,103.081673 
	C77.139595,103.069344 87.594910,102.939697 98.047379,103.064384 
	C99.427628,103.080849 100.793236,104.325005 101.997208,105.654396 
	C101.999214,106.103325 102.001221,106.552261 101.482910,107.397644 
	C100.347366,109.273178 99.211823,111.148720 97.525490,113.381851 
	C96.890739,114.525124 96.255989,115.668388 94.953888,116.944321 
	C93.746521,117.281815 92.558159,117.794235 91.328636,117.927803 
	C84.488106,118.670944 77.637596,119.322174 70.790497,120.004845 
	C70.838181,120.615555 70.885857,121.226265 70.933533,121.836975 
	C74.676407,121.836975 78.427010,121.688828 82.159706,121.883759 
	C85.159462,122.040405 88.137520,122.612511 91.077255,123.656372 
	C91.186531,123.781487 91.326004,123.891891 91.396210,124.036034 
	C91.460724,124.168518 91.524727,124.425591 91.462868,124.477501 
	C87.654106,127.673157 83.832367,130.853333 79.143730,134.004349 
	C76.412376,134.294235 73.681023,134.584122 70.092270,134.797470 
	C68.403351,135.046204 66.714432,135.294937 64.498337,135.380142 
	C63.984505,135.536255 63.470669,135.692368 62.211868,135.750397 
	C61.476093,135.879913 60.740314,136.009430 59.156231,136.031540 
	C56.126942,136.401230 53.097652,136.770935 49.267601,136.952347 
	C47.059891,137.344711 44.852180,137.737091 42.644470,138.129456 
	C42.672504,138.329086 42.700542,138.528702 42.728580,138.728333 
	C45.121986,138.728333 47.515392,138.728333 50.818928,138.783340 
	C53.831215,138.695282 56.843506,138.607239 60.455738,138.731094 
	C61.297356,138.663605 62.138977,138.596130 63.650402,138.738235 
M63.460228,121.920441 
	C65.852989,121.920441 68.245743,121.920441 70.638504,121.920441 
	C70.536972,121.211433 70.435432,120.502426 70.333900,119.793419 
	C67.797607,120.443794 65.261314,121.094170 63.460228,121.920441 
z"/>
<path fill="#3D3C3D" opacity="1.000000" stroke="none" 
	d="
M65.025513,135.543671 
	C66.714432,135.294937 68.403351,135.046204 70.758255,135.124664 
	C73.429047,136.342209 75.433861,137.232544 77.844788,138.303238 
	C78.445244,137.120560 79.228539,135.577744 80.011826,134.034943 
	C83.832367,130.853333 87.654106,127.673157 91.462868,124.477501 
	C91.524727,124.425591 91.460724,124.168518 91.396210,124.036034 
	C91.326004,123.891891 91.186531,123.781487 91.458771,123.318687 
	C94.162674,121.575447 97.610558,120.859673 95.621239,116.811653 
	C96.255989,115.668388 96.890739,114.525124 98.186462,113.194534 
	C103.284927,112.784111 102.307419,109.715759 102.003235,107.001190 
	C102.001221,106.552261 101.999214,106.103325 102.450256,105.315659 
	C103.484253,104.725967 104.439552,104.610909 104.587662,104.202850 
	C105.927361,100.512009 107.581123,98.181366 111.711769,101.435982 
	C112.203064,101.823074 113.912315,101.070908 114.805267,100.471687 
	C118.783821,97.801834 117.978241,90.798508 113.421158,87.821480 
	C113.535675,87.416908 113.650200,87.012337 114.067780,86.116005 
	C115.870361,82.890800 117.369881,80.157349 118.969215,77.241936 
	C115.625420,71.403954 110.113678,72.436508 104.659264,73.890976 
	C100.012810,75.129997 95.594460,76.876846 94.459106,83.036072 
	C101.241508,82.622208 107.493332,82.240723 114.195732,81.831741 
	C113.700531,83.563477 113.351952,84.782486 113.003372,86.001495 
	C109.041382,86.095642 105.079742,86.242043 101.117302,86.268326 
	C97.587677,86.291740 93.910973,85.361496 92.400642,90.374428 
	C92.094482,91.390610 88.346550,92.211815 86.543137,91.743881 
	C83.602249,90.980804 83.406586,88.365623 84.322754,85.451096 
	C83.951584,85.143219 83.990608,85.218079 83.990608,85.218079 
	C88.831505,83.891159 89.190094,78.966232 91.623314,75.706924 
	C92.898659,73.998589 94.162811,72.281898 95.931976,70.220535 
	C97.586739,68.768227 98.741539,67.664360 99.896332,66.560486 
	C104.032516,65.842346 108.188339,64.436623 112.300667,64.554031 
	C120.054688,64.775421 127.783653,65.874115 135.760529,66.630669 
	C136.141510,63.879005 136.248703,61.929119 136.702515,60.063541 
	C137.755508,55.734905 140.815536,54.738056 144.968246,54.729603 
	C148.983765,54.721432 151.085785,56.821259 151.527832,60.141312 
	C151.891495,62.872658 154.908020,66.645706 149.868164,68.624817 
	C149.715134,68.684906 150.172409,72.040718 151.172501,72.954826 
	C153.723282,75.286285 156.742798,77.104904 160.101135,79.504875 
	C162.123093,76.702606 164.297852,73.688545 166.554581,70.560898 
	C164.982071,69.305786 163.216995,68.598152 162.892868,67.474754 
	C162.400330,65.767700 162.325623,63.429684 163.165665,62.002583 
	C163.898376,60.757797 166.259064,59.651497 167.681305,59.875500 
	C168.964127,60.077538 170.925217,62.182629 170.903656,63.419086 
	C170.789169,69.987038 170.841873,76.696701 169.464447,83.060265 
	C168.345993,88.227356 164.343994,89.477623 159.259033,87.851318 
	C158.627335,87.649277 158.028732,87.346146 157.405869,87.113739 
	C142.037827,81.379456 133.330917,85.248634 126.693848,100.667526 
	C132.134796,103.139641 137.855148,105.153717 142.894058,108.269737 
	C145.496231,109.878891 148.587784,113.605263 148.354630,116.082954 
	C148.115479,118.624329 144.373749,121.253708 141.629715,123.006737 
	C139.516678,124.356636 136.591705,124.861679 133.998230,124.959541 
	C122.899712,125.378334 114.963112,130.632828 109.459526,140.066711 
	C108.629379,141.489700 107.265335,142.601242 106.148254,143.856842 
	C105.623451,143.670090 105.098648,143.483353 104.573845,143.296616 
	C105.004051,138.643188 105.434258,133.989746 106.069290,128.636826 
	C107.321671,127.000496 108.219284,125.638741 109.444817,125.206284 
	C113.164429,123.893730 117.016693,122.960312 120.806335,121.842117 
	C124.784683,120.668259 128.714417,119.307381 132.734406,118.304909 
	C135.342499,117.654518 138.074219,117.499794 140.750549,117.122986 
	C140.713486,116.578934 140.676422,116.034889 140.639359,115.490845 
	C138.831009,114.068413 137.022659,112.645981 136.044754,111.876770 
	C123.971672,114.847740 111.533279,115.890778 104.548500,127.349251 
	C97.979950,132.583603 91.428444,137.839523 84.838287,143.046524 
	C77.598190,148.767044 70.322502,154.442505 63.443279,160.906586 
	C104.105446,157.375397 144.031372,156.905685 182.674545,171.168198 
	C132.203247,163.690063 81.729454,163.843689 31.211250,171.551483 
	C31.149881,171.054840 31.088512,170.558212 31.027143,170.061569 
	C37.123692,168.302353 43.137959,165.555359 49.338024,165.038940 
	C56.755386,164.421127 58.432625,159.529984 59.645050,154.189148 
	C60.464138,150.580978 61.504158,149.504410 65.407112,148.511398 
	C69.263565,147.530212 72.243263,143.103012 75.607574,140.187500 
	C75.314972,139.698288 75.022377,139.209076 74.729774,138.719864 
	C71.787399,138.719864 68.845032,138.719864 65.457771,138.322800 
	C65.017097,137.131714 65.021309,136.337692 65.025513,135.543671 
z"/>
<path fill="#3D3D3D" opacity="1.000000" stroke="none" 
	d="
M113.172745,88.025101 
	C117.978241,90.798508 118.783821,97.801834 114.805267,100.471687 
	C113.912315,101.070908 112.203064,101.823074 111.711769,101.435982 
	C107.581123,98.181366 105.927361,100.512009 104.587662,104.202850 
	C104.439552,104.610909 103.484253,104.725967 102.534470,104.988747 
	C100.793236,104.325005 99.427628,103.080849 98.047379,103.064384 
	C87.594910,102.939697 77.139595,103.069344 66.685120,103.081673 
	C65.144310,103.083488 63.603275,102.885147 62.062344,102.779411 
	C61.997215,102.328278 61.932087,101.877136 61.866959,101.425995 
	C63.095573,101.199448 64.315605,100.854980 65.554146,100.764938 
	C75.889778,100.013519 86.265587,98.429245 96.555573,98.859367 
	C105.307739,99.225220 109.691078,95.186050 113.172745,88.025101 
z"/>
<path fill="#E9E8E8" opacity="1.000000" stroke="none" 
	d="
M113.191589,86.033401 
	C113.351952,84.782486 113.700531,83.563477 114.195732,81.831741 
	C107.493332,82.240723 101.241508,82.622208 94.459106,83.036072 
	C95.594460,76.876846 100.012810,75.129997 104.659264,73.890976 
	C110.113678,72.436508 115.625420,71.403954 118.969215,77.241936 
	C117.369881,80.157349 115.870361,82.890800 114.060738,85.799240 
	C113.750626,85.974236 113.379822,86.065308 113.191589,86.033401 
z"/>
<path fill="#424242" opacity="1.000000" stroke="none" 
	d="
M99.430717,66.535355 
	C98.741539,67.664360 97.586739,68.768227 96.292450,69.908127 
	C80.662796,69.944168 65.172623,69.944168 48.400581,69.944168 
	C50.012871,70.712509 50.495781,71.156998 50.801064,71.057343 
	C65.208908,66.354065 80.298744,67.610924 95.056458,66.001968 
	C96.325783,65.863586 97.660667,66.326576 99.430717,66.535355 
z"/>
<path fill="#3F3E3F" opacity="1.000000" stroke="none" 
	d="
M95.287567,116.877991 
	C97.610558,120.859673 94.162674,121.575447 91.482750,122.990639 
	C88.137520,122.612511 85.159462,122.040405 82.159706,121.883759 
	C78.427010,121.688828 74.676407,121.836975 70.933533,121.836975 
	C70.885857,121.226265 70.838181,120.615555 70.790497,120.004845 
	C77.637596,119.322174 84.488106,118.670944 91.328636,117.927803 
	C92.558159,117.794235 93.746521,117.281815 95.287567,116.877991 
z"/>
<path fill="#B7B6B7" opacity="1.000000" stroke="none" 
	d="
M83.993240,85.136993 
	C82.934311,85.750107 81.841148,86.891327 80.731964,86.907135 
	C70.876945,87.047516 61.019093,86.988777 51.042233,85.989365 
	C52.404354,85.683296 53.761841,85.138016 55.129375,85.111534 
	C61.978668,84.978905 68.832664,85.062439 75.680229,84.885223 
	C77.558083,84.836617 79.405235,84.021385 81.294601,83.813072 
	C82.182129,83.715218 83.136368,84.222282 84.025490,84.836647 
	C83.990608,85.218079 83.951584,85.143219 83.993240,85.136993 
z"/>
<path fill="#424242" opacity="1.000000" stroke="none" 
	d="
M79.577774,134.019653 
	C79.228539,135.577744 78.445244,137.120560 77.844788,138.303238 
	C75.433861,137.232544 73.429047,136.342209 71.186951,135.162933 
	C73.681023,134.584122 76.412376,134.294235 79.577774,134.019653 
z"/>
<path fill="#3D3D3D" opacity="1.000000" stroke="none" 
	d="
M101.743073,107.199417 
	C102.307419,109.715759 103.284927,112.784111 98.461861,113.015732 
	C99.211823,111.148720 100.347366,109.273178 101.743073,107.199417 
z"/>
<path fill="#424242" opacity="1.000000" stroke="none" 
	d="
M59.855797,138.519180 
	C56.843506,138.607239 53.831215,138.695282 50.435440,138.362076 
	C50.057423,137.674088 50.062893,137.407364 50.068367,137.140640 
	C53.097652,136.770935 56.126942,136.401230 59.568886,136.482300 
	C59.939621,137.461761 59.897709,137.990463 59.855797,138.519180 
z"/>
<path fill="#767676" opacity="1.000000" stroke="none" 
	d="
M63.092621,121.832489 
	C65.261314,121.094170 67.797607,120.443794 70.333900,119.793419 
	C70.435432,120.502426 70.536972,121.211433 70.638504,121.920441 
	C68.245743,121.920441 65.852989,121.920441 63.092621,121.832489 
z"/>
<path fill="#818181" opacity="1.000000" stroke="none" 
	d="
M49.667984,137.046494 
	C50.062893,137.407364 50.057423,137.674088 49.980373,138.334564 
	C47.515392,138.728333 45.121986,138.728333 42.728580,138.728333 
	C42.700542,138.528702 42.672504,138.329086 42.644470,138.129456 
	C44.852180,137.737091 47.059891,137.344711 49.667984,137.046494 
z"/>
<path fill="#3D3C3D" opacity="1.000000" stroke="none" 
	d="
M60.155769,138.625137 
	C59.897709,137.990463 59.939621,137.461761 59.993038,136.535995 
	C60.740314,136.009430 61.476093,135.879913 62.600586,136.134216 
	C62.986404,137.188232 62.983498,137.858444 62.980595,138.528656 
	C62.138977,138.596130 61.297356,138.663605 60.155769,138.625137 
z"/>
<path fill="#424242" opacity="1.000000" stroke="none" 
	d="
M63.315498,138.633453 
	C62.983498,137.858444 62.986404,137.188232 62.973068,136.183258 
	C63.470669,135.692368 63.984505,135.536255 64.761925,135.461914 
	C65.021309,136.337692 65.017097,137.131714 65.016617,138.223709 
	C64.563705,138.593872 64.107056,138.666061 63.315498,138.633453 
z"/>
<path fill="#E8E8E8" opacity="1.000000" stroke="none" 
	d="
M104.846771,127.659866 
	C111.533279,115.890778 123.971672,114.847740 136.044754,111.876770 
	C137.022659,112.645981 138.831009,114.068413 140.639359,115.490845 
	C140.676422,116.034889 140.713486,116.578934 140.750549,117.122986 
	C138.074219,117.499794 135.342499,117.654518 132.734406,118.304909 
	C128.714417,119.307381 124.784683,120.668259 120.806335,121.842117 
	C117.016693,122.960312 113.164429,123.893730 109.444817,125.206284 
	C108.219284,125.638741 107.321671,127.000496 106.063095,128.199799 
	C105.616402,128.298340 105.380714,128.134399 104.846771,127.659866 
z"/>
</svg>